<svg t="1607133273443" class="icon" viewBox="0 0 1024 1024" version="1.1" xmlns="http://www.w3.org/2000/svg" p-id="2808" width="200" height="200"><path d="M475.664516 876.676129c153.930323 0 283.416774-107.685161 314.467097-253.027097h-383.174194V239.814194c-145.341935 31.710968-253.027097 160.536774-253.027096 314.467096 0 178.374194 144.020645 322.394839 321.734193 322.394839m0 51.530323c-206.12129 0-373.264516-167.143226-373.264516-373.264517 0-200.175484 157.894194-363.354839 355.427097-372.60387v390.44129h390.44129c-8.588387 197.532903-172.428387 355.427097-372.603871 355.427097z" p-id="2809"></path><path d="M868.748387 433.383226c-15.855484-142.03871-128.825806-255.669677-270.864516-270.864516v270.864516h270.864516m52.190968 50.869677H546.353548V109.667097c5.945806 0 11.230968-0.660645 17.176775-0.660645 198.193548 0 358.069677 160.536774 358.069677 358.069677 0 5.945806 0 11.891613-0.660645 17.176774z" p-id="2810"></path></svg>