<svg t="1607134079098" class="icon" viewBox="0 0 1024 1024" version="1.1" xmlns="http://www.w3.org/2000/svg" p-id="3586" width="200" height="200"><path d="M66.56 574.976v-453.12c0-30.208 24.576-55.296 55.296-55.296h453.12c30.208 0 55.296 24.576 55.296 55.296v453.12c0 30.208-24.576 55.296-55.296 55.296h-116.736c-18.432 0-33.28 14.848-33.28 33.28s14.848 33.28 33.28 33.28h134.144c57.344 0 104.448-46.592 104.448-104.448V104.448c0-57.344-46.592-103.936-103.936-103.936h-487.936c-57.344 0-103.936 46.592-103.936 103.936v487.936c0 57.344 46.592 104.448 104.448 104.448h159.232c18.432 0 33.28-14.848 33.28-33.28s-14.848-33.28-33.28-33.28H122.88c-31.744-0.512-56.32-25.088-56.32-55.296z" p-id="3587"></path><path d="M919.552 327.68h-159.232c-18.432 0-33.28 14.848-33.28 33.28s14.848 33.28 33.28 33.28h141.824c30.208 0 55.296 24.576 55.296 55.296v453.12c0 30.208-24.576 55.296-55.296 55.296h-453.12c-30.208 0-55.296-24.576-55.296-55.296v-453.632c0-30.208 24.576-55.296 55.296-55.296h116.736c18.432 0 33.28-14.848 33.28-33.28s-14.848-33.28-33.28-33.28h-134.144c-57.344 0-104.448 46.592-104.448 104.448V919.552c0 57.344 46.592 103.936 103.936 103.936h487.936c57.344 0 103.936-46.592 103.936-103.936v-487.936c1.024-57.344-45.568-103.936-103.424-103.936z" p-id="3588"></path></svg>