<svg t="1607135511181" class="icon" viewBox="0 0 1024 1024" version="1.1" xmlns="http://www.w3.org/2000/svg" p-id="1089" width="200" height="200"><path d="M742.96919559 756.44903575c-15.83658723-2.75254969-31.67317446 0.90494785-44.75721201 9.99213244a307.3052046 307.3052046 0 0 1-183.62899956 57.65271875c-8.14453058 0-16.70382892-0.45247391-25.75330733-1.35742177-2.2623696 0-4.07226528-0.45247391-6.3346349-0.90494784-1.35742176 0-2.71484352-0.4901801-4.5247392-0.49018008a301.95092989 301.95092989 0 0 1-19.90885253-3.16731745c-2.71484352-0.45247391-5.88216097-1.35742176-8.59700448-1.80989567l-3.16731746-0.90494785c-6.78710881-1.80989569-13.12174371-3.16731744-18.96619852-4.97721313-1.80989569-0.4901801-3.61979137-1.39512793-5.42968706-1.84760185l-3.61979135-1.35742175c-6.33463489-2.2623696-14.02669155-4.97721313-21.26627429-8.18223674-1.35742176-0.45247391-2.2623696-0.90494785-3.61979137-1.35742176l-0.90494783-0.45247392c-9.95442626-4.52473921-17.19400899-8.14453058-23.98111781-11.80202811l-0.90494785-0.45247392a320.76630374 320.76630374 0 0 1-71.41546718-54.4854013l-0.90494783-0.90494784a276.38615335 276.38615335 0 0 1-18.55143077-20.8892127c-0.45247391-0.90494785-1.35742176-1.80989569-1.80989567-2.2623696-0.45247391-0.90494785-1.35742176-1.80989569-1.8098957-2.71484353a316.43009535 316.43009535 0 0 1-68.73832981-189.77510364h65.57101238a13.4988053 13.4988053 0 0 0 12.66926977-7.72976283 14.78081473 14.78081473 0 0 0-0.45247391-14.96934555l-126.16481161-191.58499932a14.40375315 14.40375315 0 0 0-12.21679586-6.37234106 14.40375315 14.40375315 0 0 0-12.21679588 6.37234106L5.85147229 491.75179203a14.78081473 14.78081473 0 0 0 12.21679586 22.69910838h65.98578013a443.42444249 443.42444249 0 0 0 76.46809264 240.6407136l0.45247392 0.4524739 1.35742177 2.71484354c4.03455913 5.88216097 8.10682442 10.89708027 12.17908968 16.32676732l5.42968706 6.7871088 4.0722653 5.46739321c6.78710881 8.6724168 14.47916546 17.26942132 24.88606565 28.16650159l0.90494783 0.90494782c0.45247391 0.45247391 1.35742176 1.35742176 1.35742176 1.8098957 28.92062478 29.03374324 61.46104092 54.03292738 97.20648069 74.46966614 0.90494785 0.45247391 2.2623696 1.35742176 3.16731743 1.80989569 9.50195234 4.97721313 19.45637859 9.99213243 31.67317448 15.45952561 1.35742176 0.41476775 2.2623696 0.86724167 3.61979136 1.80989569 1.35742176 0.45247391 2.71484352 1.35742176 4.52473922 1.80989569 9.95442626 4.07226528 20.36132644 7.69205665 28.01567691 10.44460634l2.26236963 0.90494784c3.61979137 1.35742176 7.23958273 2.71484352 11.31184801 3.61979137 8.59700449 2.71484352 17.19400899 4.52473921 25.33853957 6.78710881l4.07226529 0.94265402c4.07226528 0.90494785 8.59700449 2.2623696 13.08403755 2.71484352 0.90494785 0 1.80989569 0.45247391 2.26236959 0.45247391 1.80989569 0.45247391 3.16731744 0.90494785 4.97721314 0.90494785 6.33463489 0.90494785 12.21679586 1.80989569 18.09895684 2.71484353l5.88216097 0.90494784c1.35742176 0 2.71484352 0.4901801 4.07226528 0.49018007 1.35742176 0 2.71484352 0.45247391 4.52473921 0.45247392a425.89107804 425.89107804 0 0 0 291.69485434-77.63698357c27.14843525-19.07931699 33.44536398-57.23795099 14.89393322-84.91427251a58.48225427 58.48225427 0 0 0-38.87505103-25.4139519zM1031.04425856 503.55382014a14.85622708 14.85622708 0 0 0-12.66926979-7.72976282h-66.02348628a445.23433817 445.23433817 0 0 0-75.97791255-240.18823967c-0.90494785-1.80989569-1.35742176-3.16731744-2.26236961-4.07226529a337.2438957 337.2438957 0 0 0-18.55143076-24.05653012c-1.35742176-2.2623696-2.2623696-3.16731744-2.71484351-3.61979137a429.51086941 429.51086941 0 0 0-161.8725452-123.94014816c-0.90494785-0.45247391-1.35742176-0.90494785-2.26236961-0.90494785l-2.71484354-1.39512793a430.49122956 430.49122956 0 0 0-30.76822662-11.31184801l-4.07226528-1.39512793a44.30473808 44.30473808 0 0 0-7.23958273-2.2623696c-9.50195234-2.71484352-18.5137246-4.97721313-27.14843526-7.27728888l-4.52473921-0.90494785c-3.58208519-0.90494785-6.78710881-1.80989569-10.36919401-2.26236961-0.90494785 0-1.80989569-0.45247391-3.16731747-0.90494784-1.35742176-0.45247391-2.71484352-0.90494785-4.52473919-0.90494785-4.52473921-0.90494785-9.50195234-1.35742176-14.02669155-1.80989567-2.2623696-0.45247391-4.52473921-0.45247391-6.78710882-0.90494785-1.80989569 0-3.16731744-0.45247391-4.97721313-0.90494785l-9.04947843-1.35742176a659.70697666 659.70697666 0 0 0-34.31260564-1.84760184c-4.10997145 0-5.91986713-0.45247391-7.72976282 0-89.06195011 0-174.57952116 27.71402766-247.35241009 79.48458544-27.14843525 19.04161083-33.93554407 57.20024483-14.93163939 84.87656633 9.04947843 13.61192379 23.07616996 22.24663444 38.9127572 24.96147796 15.83658723 2.75254969 31.67317446-0.90494785 44.75721199-9.99213241a309.49216189 309.49216189 0 0 1 209.83478083-56.295297 22.62369604 22.62369604 0 0 1 5.42968705 0.94265401l3.16731744 0.45247392c8.59700449 0.90494785 15.83658723 2.2623696 22.13351596 3.61979137l6.78710881 1.35742176 2.71484354 0.45247391c5.88216097 1.35742176 13.57421762 3.16731744 21.26627428 5.46739323 1.35742176 0.45247391 2.2623696 0.90494785 3.61979136 1.35742176l3.16731746 0.90494783c8.59700449 2.71484352 16.28906115 5.88216097 23.49093772 8.63471066 1.35742176 0.90494785 2.2623696 0.90494785 2.71484352 1.35742175a315.60055982 315.60055982 0 0 1 118.02028103 89.89148563 323.59426575 323.59426575 0 0 1 72.39582734 194.29984287h-65.60871852a13.4988053 13.4988053 0 0 0-12.63156362 7.72976282 14.81852092 14.81852092 0 0 0 0.45247391 14.96934555l125.7123377 192.03747327c2.71484352 4.10997145 7.23958273 6.82481497 12.21679586 6.82481496s9.46424618-2.2623696 12.1790897-6.33463491l125.75004385-192.07517941a19.23014164 19.23014164 0 0 0-0.45247392-14.96934555z" p-id="1090"></path></svg>