<svg t="1607135459643" class="icon" viewBox="0 0 1024 1024" version="1.1" xmlns="http://www.w3.org/2000/svg" p-id="6482" width="200" height="200"><path d="M512 83.456a247.637333 247.637333 0 0 1 247.296 247.296V546.133333a76.8 76.8 0 0 0 30.72 61.44 193.877333 193.877333 0 0 1 61.610667 78.506667H172.373333a193.877333 193.877333 0 0 1 61.610667-77.824 76.8 76.8 0 0 0 30.72-61.44V338.432c0-136.533333 106.837333-250.197333 238.933333-254.976H512m0-76.8h-11.776C324.266667 12.970667 187.733333 162.816 187.733333 338.432V546.133333a270.848 270.848 0 0 0-89.429333 117.418667 72.362667 72.362667 0 0 0 68.266667 98.816h691.541333a72.362667 72.362667 0 0 0 68.266667-98.816A270.848 270.848 0 0 0 836.266667 546.133333V330.752a324.266667 324.266667 0 0 0-324.266667-324.266667z" p-id="6483"></path><path d="M512 1017.344a199.68 199.68 0 0 1-197.632-167.082667 38.4 38.4 0 1 1 75.776-12.629333 123.733333 123.733333 0 0 0 243.882667 0 38.4 38.4 0 1 1 75.776 12.629333A199.850667 199.850667 0 0 1 512 1017.344z" p-id="6484"></path></svg>